<svg width="32" height="32" viewBox="0 0 32 32" fill="none" xmlns="http://www.w3.org/2000/svg">
<g filter="url(#filter0_dd)">
<path d="M16 28C22.6274 28 28 22.6274 28 16C28 9.37258 22.6274 4 16 4C9.37258 4 4 9.37258 4 16C4 22.6274 9.37258 28 16 28Z" fill="white"/>
</g>
<path d="M13.2092 20.4214C13.251 20.5029 13.303 20.5797 13.3652 20.6495L13.3932 20.6808C13.7806 21.115 14.4113 21.1049 14.7875 20.6585L21.809 12.3233C22.069 12.0146 22.0628 11.53 21.795 11.2298C21.5272 10.9296 21.095 10.9226 20.8197 11.2142L14.0453 18.3872L11.1834 15.6851C10.8976 15.4153 10.4751 15.4356 10.2108 15.7318C9.93539 16.0406 9.92904 16.539 10.1965 16.8565L13.1233 20.3309C13.1507 20.3635 13.1794 20.3936 13.2092 20.4214Z" fill="#D0AF71"/>
<defs>
<filter id="filter0_dd" x="2" y="3" width="28" height="29" filterUnits="userSpaceOnUse" color-interpolation-filters="sRGB">
<feFlood flood-opacity="0" result="BackgroundImageFix"/>
<feColorMatrix in="SourceAlpha" type="matrix" values="0 0 0 0 0 0 0 0 0 0 0 0 0 0 0 0 0 0 127 0"/>
<feOffset dy="2"/>
<feGaussianBlur stdDeviation="1"/>
<feColorMatrix type="matrix" values="0 0 0 0 0.815686 0 0 0 0 0.686275 0 0 0 0 0.443137 0 0 0 0.3 0"/>
<feBlend mode="normal" in2="BackgroundImageFix" result="effect1_dropShadow"/>
<feColorMatrix in="SourceAlpha" type="matrix" values="0 0 0 0 0 0 0 0 0 0 0 0 0 0 0 0 0 0 127 0"/>
<feOffset/>
<feGaussianBlur stdDeviation="0.5"/>
<feColorMatrix type="matrix" values="0 0 0 0 0.815686 0 0 0 0 0.686275 0 0 0 0 0.443137 0 0 0 0.25 0"/>
<feBlend mode="normal" in2="effect1_dropShadow" result="effect2_dropShadow"/>
<feBlend mode="normal" in="SourceGraphic" in2="effect2_dropShadow" result="shape"/>
</filter>
</defs>
</svg>
