<svg width="24" height="24" viewBox="0 0 24 24" fill="none" xmlns="http://www.w3.org/2000/svg">
<path d="M20.052 12.9092C21.1257 12.9092 22 11.9676 22 10.8113V4.09798C22 2.94163 21.1257 2.00009 20.052 2.00009H17.7143C17.2756 2.00009 16.872 2.15952 16.5455 2.42472V12.9092H20.052Z" fill="#2D7EDB"/>
<path d="M2.00037 10.0682C2.00037 10.5897 2.2032 11.0757 2.5552 11.4341C2.15717 11.8775 1.95434 12.4719 2.00976 13.0906C2.10947 14.1936 3.08534 15.0579 4.23247 15.0579H9.49696C9.23616 15.864 8.81856 17.3418 8.81856 18.5289C8.81856 20.4111 10.3893 22 11.3754 22C12.2609 22 12.8933 21.4924 12.9205 21.4715C13.0211 21.3891 13.0799 21.2641 13.0799 21.1322V18.1897L15.5344 12.7756L15.6367 12.7227V3.42194C14.943 3.08872 14.0652 2.90909 13.5061 2.90909H5.68303C4.7549 2.90909 3.94267 3.54605 3.75179 4.42507C3.65379 4.87719 3.71088 5.33277 3.90604 5.72847C3.27622 6.05128 2.85263 6.71167 2.85263 7.46488C2.85263 7.77207 2.92166 8.06624 3.0529 8.33263C2.42308 8.65544 2.00037 9.31583 2.00037 10.0682Z" fill="#2D7EDB"/>
</svg>
