<svg width="24" height="24" viewBox="0 0 24 24" fill="none" xmlns="http://www.w3.org/2000/svg">
<path d="M3.94804 11.0908C2.87429 11.0908 2 12.0324 2 13.1887V19.902C2 21.0584 2.87429 21.9999 3.94804 21.9999H6.2857C6.72442 21.9999 7.12803 21.8405 7.45453 21.5753V11.0908H3.94804Z" fill="#2D7EDB"/>
<path d="M21.9996 13.9318C21.9996 13.4103 21.7968 12.9243 21.4448 12.5659C21.8428 12.1225 22.0457 11.5281 21.9902 10.9094C21.8905 9.80642 20.9147 8.94213 19.7675 8.94213H14.503C14.7638 8.13595 15.1814 6.65817 15.1814 5.47106C15.1814 3.58887 13.6107 2 12.6246 2C11.7391 2 11.1067 2.50765 11.0795 2.52847C10.9789 2.61092 10.9201 2.73588 10.9201 2.86776V5.81035L8.46555 11.2244L8.36328 11.2773V20.5781C9.05702 20.9113 9.93485 21.0909 10.4939 21.0909H18.317C19.2451 21.0909 20.0573 20.454 20.2482 19.5749C20.3462 19.1228 20.2891 18.6672 20.094 18.2715C20.7238 17.9487 21.1474 17.2883 21.1474 16.5351C21.1474 16.2279 21.0783 15.9338 20.9471 15.6674C21.5769 15.3446 21.9996 14.6842 21.9996 13.9318Z" fill="#2D7EDB"/>
</svg>
