<svg width="76" height="36" viewBox="0 0 76 36" fill="none" xmlns="http://www.w3.org/2000/svg">
<path d="M5.60771 24.2353C5.60771 26.1739 4.35208 27.3624 2.31991 27.3624H0V21.1082H2.31991C4.35208 21.1082 5.60771 22.2967 5.60771 24.2353ZM3.80503 24.2353C3.80503 23.3421 3.28156 22.788 2.32268 22.788H1.79921V25.6826H2.32268C3.27879 25.6826 3.80226 25.1376 3.80226 24.2353H3.80503Z" fill="#356F6C"/>
<path d="M11.2076 21.1082V27.3624H9.40491V21.1082H11.2076Z" fill="#356F6C"/>
<path d="M19.8412 25.4524C19.8412 26.5423 18.9336 27.4806 17.4422 27.4806C16.3329 27.4806 15.1223 27.0512 14.8693 25.8007L16.4133 25.3072C16.448 25.6287 16.7967 25.9325 17.3639 25.9325C17.8347 25.9325 18.0441 25.721 18.0441 25.4771C18.0441 25.1014 17.5816 25.0661 16.9715 24.9131C15.7928 24.6312 15.1133 24.1271 15.1133 22.9922C15.1133 21.7938 16.0902 21 17.4339 21C18.5065 21 19.4481 21.564 19.6748 22.6439L18.1397 23.0281C18.0704 22.7779 17.8624 22.5459 17.4512 22.5459C17.1046 22.5459 16.8404 22.6975 16.8404 22.9837C16.8404 23.3411 17.3729 23.3947 17.8437 23.5286C19.335 23.9495 19.8412 24.4592 19.8412 25.4524Z" fill="#356F6C"/>
<path d="M27.1602 26.3621H25.2937L25.0233 27.3624H23.0695L25.1107 21.1082H27.3439L29.3851 27.3624H27.4306L27.1602 26.3621ZM26.8024 25.0396L26.227 22.9044L25.6515 25.0396H26.8024Z" fill="#356F6C"/>
<path d="M37.9654 25.5127C37.9654 26.7188 37.1722 27.3624 35.5144 27.3624H32.9588V21.1082H35.2787C36.9621 21.1082 37.738 21.6531 37.738 22.8C37.738 23.4162 37.4766 23.818 37.0231 24.0598V24.095C37.6166 24.3601 37.9654 24.8176 37.9654 25.5127ZM34.7649 22.475V23.5924H35.201C35.6628 23.5924 35.9076 23.3865 35.9076 23.0284C35.9076 22.6534 35.6302 22.4743 35.201 22.4743L34.7649 22.475ZM36.1426 25.3519C36.1426 24.9677 35.8812 24.788 35.4361 24.788H34.7649V25.9222H35.4361C35.8708 25.9237 36.1426 25.7277 36.1426 25.3519Z" fill="#356F6C"/>
<path d="M43.5217 21.1082V27.3624H41.719V21.1082H43.5217Z" fill="#356F6C"/>
<path d="M51.6153 25.6826V27.3624H47.5336V21.1082H49.3363V25.6826H51.6153Z" fill="#356F6C"/>
<path d="M57.1704 21.1082V27.3624H55.3677V21.1082H57.1704Z" fill="#356F6C"/>
<path d="M65.5876 22.788H64.1586V27.3624H62.356V22.788H60.9214V21.1082H65.5876V22.788Z" fill="#356F6C"/>
<path d="M72.9047 25.0129V27.3624H71.102V25.0129L68.9041 21.1082H70.8926L72.0089 23.5381L73.1182 21.1082H75.1067L72.9047 25.0129Z" fill="#356F6C"/>
<path d="M12.16 34.1693V35.8816H8V29.5046H9.84081V34.1693H12.16Z" fill="#356F6C"/>
<path d="M19.7098 34.8615H17.8073L17.5299 35.8816H15.5394L17.6194 29.5046H19.8963L21.9763 35.8816H19.9857L19.7098 34.8615ZM19.3458 33.513L18.7585 31.3361L18.1713 33.513H19.3458Z" fill="#356F6C"/>
<path d="M33.6193 29.5046L31.7778 35.8816H30.1505L29.1722 32.3569L28.2016 35.8816H26.5757L24.7342 29.5046H26.7171L27.5623 33.1217L28.5579 29.5046H29.7955L30.7919 33.1217L31.6239 29.5046H33.6193Z" fill="#356F6C"/>
<path d="M40.902 33.4863V35.8831H39.0612V33.4863L36.8196 29.5048H38.8477L39.9868 31.9806L41.1163 29.502H43.1443L40.902 33.4863Z" fill="#356F6C"/>
<path d="M51.0235 34.3328V35.8837H46.7941V29.5046H50.9382V31.064H48.6315V31.9297H50.6505V33.4051H48.6315V34.3342L51.0235 34.3328Z" fill="#356F6C"/>
<path d="M57.4518 33.8323H56.7758V35.8816H54.935V29.5046H57.4872C59.2039 29.5046 60.04 30.3886 60.04 31.7915C60.04 32.6022 59.7197 33.1577 59.1505 33.477L60.4755 35.8816H58.4648L57.4518 33.8323ZM56.7758 32.3562H57.4872C57.9032 32.3562 58.1805 32.2109 58.1805 31.7922C58.1805 31.4094 57.967 31.2184 57.4872 31.2184H56.7758V32.3562Z" fill="#356F6C"/>
<path d="M68.8364 33.9324C68.8364 35.0434 67.9115 36 66.391 36C65.2616 36 64.0253 35.5629 63.7674 34.2877L65.3413 33.7865C65.3773 34.1143 65.733 34.4209 66.312 34.4209C66.7924 34.4209 67.0053 34.2024 67.0053 33.9564C67.0053 33.5736 66.5338 33.5334 65.9112 33.3825C64.711 33.0907 64.017 32.5803 64.017 31.4235C64.017 30.2032 65.0133 29.3918 66.3827 29.3918C67.4768 29.3918 68.437 29.9664 68.6707 31.0682L67.1051 31.4602C67.0358 31.205 66.8209 30.9667 66.4028 30.9667C66.0471 30.9667 65.7788 31.1218 65.7788 31.4129C65.7788 31.7774 66.321 31.8359 66.8015 31.9691C68.3206 32.4034 68.8364 32.9208 68.8364 33.9324Z" fill="#356F6C"/>
<path d="M28.1845 0.0498047V0.616919H26.5867V1.30424H27.8244V1.86687H26.5867V2.6724H28.1845V3.24201H26V0.0498047H28.1845Z" fill="#356F6C"/>
<path d="M30.3891 2.73681C30.5995 2.73681 31.0013 2.65003 31.0013 2.36971C31.0013 1.74673 29.377 2.05149 29.377 0.923244C29.377 0.258369 30.0172 0 30.5735 0C30.8797 0 31.2441 0.109233 31.5203 0.240413L31.3202 0.763136C31.1034 0.669864 30.8124 0.563623 30.5755 0.563623C30.3386 0.563623 29.9633 0.613502 29.9633 0.926237C29.9633 1.56218 31.5851 1.24646 31.5851 2.3727C31.5851 3.02661 30.938 3.29844 30.3891 3.29844C30.0501 3.29844 29.6807 3.16477 29.3702 3.03109L29.5846 2.50737C29.8132 2.60763 30.1389 2.73681 30.3891 2.73681Z" fill="#356F6C"/>
<path d="M35.0297 0.0498047V0.616919H34.0844V3.24001H33.4957V0.616919H32.5489V0.0498047H35.0297Z" fill="#356F6C"/>
<path d="M35.9613 3.28415C35.877 3.27495 35.7991 3.23442 35.7425 3.17033C35.6859 3.10625 35.6545 3.02314 35.6545 2.937C35.6545 2.85085 35.6859 2.76774 35.7425 2.70366C35.7991 2.63958 35.877 2.59904 35.9613 2.58984C36.0455 2.59904 36.1235 2.63958 36.1801 2.70366C36.2367 2.76774 36.268 2.85085 36.268 2.937C36.268 3.02314 36.2367 3.10625 36.1801 3.17033C36.1235 3.23442 36.0455 3.27495 35.9613 3.28415Z" fill="#356F6C"/>
<path d="M40.6951 0.0498047V3.24201H40.1064V0.605946H39.6649V0.0498047H40.6951Z" fill="#356F6C"/>
<path d="M42.2291 3.24013L42.7829 2.44208C42.8811 2.30441 42.9792 2.16874 43.0675 2.02859C42.4832 2.11737 41.9858 1.66597 41.9858 1.06295C41.9917 0.782078 42.1057 0.514753 42.3031 0.318255C42.5006 0.121757 42.7659 0.0117188 43.0422 0.0117188C43.3185 0.0117188 43.5838 0.121757 43.7813 0.318255C43.9788 0.514753 44.0927 0.782078 44.0986 1.06295C44.0986 1.4076 44.0005 1.67046 43.8043 1.95078V1.94828L42.936 3.24112L42.2291 3.24013ZM42.5764 1.06195C42.5764 1.3268 42.7766 1.56073 43.0415 1.56073C43.1042 1.55918 43.1661 1.54503 43.2235 1.51909C43.2808 1.49315 43.3326 1.45593 43.3758 1.40957C43.419 1.36322 43.4527 1.30864 43.475 1.24898C43.4974 1.18932 43.5079 1.12576 43.506 1.06195C43.506 0.7951 43.3098 0.559176 43.0415 0.559176C42.7731 0.559176 42.5764 0.801584 42.5764 1.06195Z" fill="#356F6C"/>
<path d="M47.4079 0.0498047V0.557065L46.0834 3.24001H45.4452L46.7761 0.605945H45.243V0.0498047H47.4079Z" fill="#356F6C"/>
<path d="M48.6085 3.23935L49.1624 2.4413C49.2581 2.30363 49.3586 2.16796 49.4469 2.0278C48.8627 2.11659 48.3677 1.66519 48.3677 1.06216C48.3679 0.921977 48.3954 0.783221 48.4486 0.65392C48.5019 0.524619 48.5799 0.407339 48.678 0.308865C48.7761 0.210391 48.8925 0.132677 49.0203 0.0802184C49.1482 0.02776 49.285 0.00159858 49.4229 0.00324716C49.7009 0.00217518 49.9681 0.112873 50.1662 0.31122C50.3643 0.509567 50.4773 0.779487 50.4805 1.06216C50.4805 1.40682 50.3824 1.66968 50.1862 1.94999V1.9475L49.3174 3.24034L48.6085 3.23935ZM48.9564 1.06116C48.9564 1.32602 49.156 1.55995 49.4209 1.55995C49.4837 1.5584 49.5455 1.54425 49.6029 1.5183C49.6603 1.49236 49.7121 1.45515 49.7552 1.40879C49.7984 1.36244 49.8321 1.30786 49.8545 1.2482C49.8769 1.18854 49.8874 1.12498 49.8855 1.06116C49.8855 0.794316 49.6893 0.558391 49.4209 0.558391C49.1526 0.558391 48.9564 0.8008 48.9564 1.06116Z" fill="#356F6C"/>
<path d="M29.3232 12.3134C29.3232 16.2278 26.7874 18.6272 22.6841 18.6272H18V6H22.6841C26.7885 6 29.3232 8.39902 29.3232 12.3134ZM25.677 12.3134C25.677 10.5095 24.6203 9.39119 22.6829 9.39119H21.6267V15.2357H22.6829C24.6214 15.2357 25.6781 14.1353 25.6781 12.3134H25.677Z" fill="#356F6C"/>
<path d="M39.2017 15.5605V18.6272H30.8192V6H39.0258V9.08429H34.465V10.798H38.4623V13.7203H34.465V15.5601L39.2017 15.5605Z" fill="#356F6C"/>
<path d="M49.0277 15.2357V18.6272H40.7865V6H44.4327V15.2357H49.0277Z" fill="#356F6C"/>
<path d="M58.678 15.2357V18.6272H50.4368V6H54.083V15.2357H58.678Z" fill="#356F6C"/>
</svg>
