<svg width="20" height="20" viewBox="0 0 20 20" fill="none" xmlns="http://www.w3.org/2000/svg">
<path fill-rule="evenodd" clip-rule="evenodd" d="M4.80141 3.33333H0.47619C0.213198 3.33333 0 3.12014 0 2.85714C0 2.59415 0.213198 2.38095 0.47619 2.38095H4.80141C5.02811 1.02966 6.20334 0 7.61905 0C9.03476 0 10.21 1.02966 10.4367 2.38095H19.5238C19.7868 2.38095 20 2.59415 20 2.85714C20 3.12014 19.7868 3.33333 19.5238 3.33333H10.4367C10.21 4.68463 9.03476 5.71429 7.61905 5.71429C6.20334 5.71429 5.02811 4.68463 4.80141 3.33333ZM5.71429 2.85714C5.71429 1.80517 6.56708 0.952381 7.61905 0.952381C8.67102 0.952381 9.52381 1.80517 9.52381 2.85714C9.52381 3.90911 8.67102 4.7619 7.61905 4.7619C6.56708 4.7619 5.71429 3.90911 5.71429 2.85714Z" fill="#356F6C"/>
<path fill-rule="evenodd" clip-rule="evenodd" d="M0 9.52381C0 9.26082 0.213198 9.04762 0.47619 9.04762H12.4205C12.6472 7.69633 13.8224 6.66667 15.2381 6.66667C16.6538 6.66667 17.829 7.69633 18.0557 9.04762H19.5238C19.7868 9.04762 20 9.26082 20 9.52381C20 9.7868 19.7868 10 19.5238 10H18.0557C17.829 11.3513 16.6538 12.381 15.2381 12.381C13.8224 12.381 12.6472 11.3513 12.4205 10H0.47619C0.213198 10 0 9.7868 0 9.52381ZM15.2381 7.61905C14.1861 7.61905 13.3333 8.47184 13.3333 9.52381C13.3333 10.5758 14.1861 11.4286 15.2381 11.4286C16.2901 11.4286 17.1429 10.5758 17.1429 9.52381C17.1429 8.47184 16.2901 7.61905 15.2381 7.61905Z" fill="#356F6C"/>
<path fill-rule="evenodd" clip-rule="evenodd" d="M0.47619 16.6667C0.213198 16.6667 0 16.8799 0 17.1429C0 17.4058 0.213198 17.619 0.47619 17.619H1.94427C2.17097 18.9703 3.34619 20 4.7619 20C6.17762 20 7.35284 18.9703 7.57954 17.619H19.5238C19.7868 17.619 20 17.4058 20 17.1429C20 16.8799 19.7868 16.6667 19.5238 16.6667H7.57954C7.35284 15.3154 6.17762 14.2857 4.7619 14.2857C3.34619 14.2857 2.17097 15.3154 1.94427 16.6667H0.47619ZM2.85714 17.1429C2.85714 16.0909 3.70993 15.2381 4.7619 15.2381C5.81388 15.2381 6.66667 16.0909 6.66667 17.1429C6.66667 18.1948 5.81388 19.0476 4.7619 19.0476C3.70993 19.0476 2.85714 18.1948 2.85714 17.1429Z" fill="#356F6C"/>
</svg>
